{
    "asset" : {
        "generator" : "Khronos glTF Blender I/O v1.4.40",
        "version" : "2.0"
    },
    "scene" : 0,
    "scenes" : [
        {
            "name" : "Scene",
            "nodes" : [
                0,
                1,
                11
            ]
        }
    ],
    "nodes" : [
        {
            "name" : "Light",
            "rotation" : [
                0.16907575726509094,
                0.7558803558349609,
                -0.27217137813568115,
                0.570947527885437
            ],
            "translation" : [
                4.076245307922363,
                5.903861999511719,
                -1.0054539442062378
            ]
        },
        {
            "name" : "Camera",
            "rotation" : [
                0.483536034822464,
                0.33687159419059753,
                -0.20870360732078552,
                0.7804827094078064
            ],
            "translation" : [
                7.358891487121582,
                4.958309173583984,
                6.925790786743164
            ]
        },
        {
            "name" : "Bone.007",
            "rotation" : [
                -0.1093592569231987,
                -0.06328107416629791,
                -0.8285759687423706,
                0.545433759689331
            ],
            "scale" : [
                0.9999998807907104,
                1,
                0.9999999403953552
            ],
            "translation" : [
                -2.902162421491994e-08,
                0.5691871047019958,
                -2.1445929476726633e-08
            ]
        },
        {
            "name" : "Bone.008",
            "rotation" : [
                -0.07410675287246704,
                0.05415891110897064,
                0.8135733604431152,
                0.5741719603538513
            ],
            "translation" : [
                1.3171129964462125e-08,
                0.5691871047019958,
                7.154427272837438e-09
            ]
        },
        {
            "children" : [
                2,
                3
            ],
            "name" : "Bone.002",
            "rotation" : [
                -0.249768927693367,
                -2.9325475082748404e-17,
                -5.109994922574524e-17,
                0.9683054685592651
            ],
            "scale" : [
                1,
                0.9999999403953552,
                0.9999999403953552
            ],
            "translation" : [
                -2.164347868810248e-25,
                0.0763988122344017,
                3.2007392292143777e-09
            ]
        },
        {
            "children" : [
                4
            ],
            "name" : "Bone"
        },
        {
            "name" : "Bone.005",
            "rotation" : [
                -0.19714942574501038,
                -0.014499406330287457,
                0.768852174282074,
                0.6081022620201111
            ],
            "scale" : [
                1,
                1.0000001192092896,
                1
            ],
            "translation" : [
                -1.2028074536374334e-08,
                0.6850888729095459,
                1.0372841252603848e-08
            ]
        },
        {
            "name" : "Bone.006",
            "rotation" : [
                -0.21256330609321594,
                0.015811221674084663,
                -0.77754145860672,
                0.5916048288345337
            ],
            "scale" : [
                1,
                1.0000001192092896,
                0.9999999403953552
            ],
            "translation" : [
                -5.204458641827614e-09,
                0.6850889325141907,
                1.354012901799706e-09
            ]
        },
        {
            "children" : [
                6,
                7
            ],
            "name" : "Bone.004",
            "rotation" : [
                -0.251441091299057,
                -5.87302694541117e-14,
                -9.971380450224387e-07,
                0.9678726196289062
            ],
            "translation" : [
                0,
                0.06900984793901443,
                0
            ]
        },
        {
            "children" : [
                8
            ],
            "name" : "Bone.003",
            "rotation" : [
                -1.982833055080846e-06,
                0.0037036326248198748,
                0.9999931454658508,
                -7.343726071695755e-09
            ],
            "translation" : [
                -2.842170943040401e-14,
                5.771804475335207e-15,
                0.0495484359562397
            ]
        },
        {
            "mesh" : 0,
            "name" : "Cone",
            "skin" : 0
        },
        {
            "children" : [
                10,
                5,
                9
            ],
            "name" : "Armature"
        }
    ],
    "animations" : [
        {
            "channels" : [
                {
                    "sampler" : 0,
                    "target" : {
                        "node" : 5,
                        "path" : "translation"
                    }
                },
                {
                    "sampler" : 1,
                    "target" : {
                        "node" : 5,
                        "path" : "rotation"
                    }
                },
                {
                    "sampler" : 2,
                    "target" : {
                        "node" : 5,
                        "path" : "scale"
                    }
                },
                {
                    "sampler" : 3,
                    "target" : {
                        "node" : 4,
                        "path" : "translation"
                    }
                },
                {
                    "sampler" : 4,
                    "target" : {
                        "node" : 4,
                        "path" : "rotation"
                    }
                },
                {
                    "sampler" : 5,
                    "target" : {
                        "node" : 4,
                        "path" : "scale"
                    }
                },
                {
                    "sampler" : 6,
                    "target" : {
                        "node" : 2,
                        "path" : "translation"
                    }
                },
                {
                    "sampler" : 7,
                    "target" : {
                        "node" : 2,
                        "path" : "rotation"
                    }
                },
                {
                    "sampler" : 8,
                    "target" : {
                        "node" : 2,
                        "path" : "scale"
                    }
                },
                {
                    "sampler" : 9,
                    "target" : {
                        "node" : 3,
                        "path" : "translation"
                    }
                },
                {
                    "sampler" : 10,
                    "target" : {
                        "node" : 3,
                        "path" : "rotation"
                    }
                },
                {
                    "sampler" : 11,
                    "target" : {
                        "node" : 3,
                        "path" : "scale"
                    }
                },
                {
                    "sampler" : 12,
                    "target" : {
                        "node" : 9,
                        "path" : "translation"
                    }
                },
                {
                    "sampler" : 13,
                    "target" : {
                        "node" : 9,
                        "path" : "rotation"
                    }
                },
                {
                    "sampler" : 14,
                    "target" : {
                        "node" : 9,
                        "path" : "scale"
                    }
                },
                {
                    "sampler" : 15,
                    "target" : {
                        "node" : 8,
                        "path" : "translation"
                    }
                },
                {
                    "sampler" : 16,
                    "target" : {
                        "node" : 8,
                        "path" : "rotation"
                    }
                },
                {
                    "sampler" : 17,
                    "target" : {
                        "node" : 8,
                        "path" : "scale"
                    }
                },
                {
                    "sampler" : 18,
                    "target" : {
                        "node" : 6,
                        "path" : "translation"
                    }
                },
                {
                    "sampler" : 19,
                    "target" : {
                        "node" : 6,
                        "path" : "rotation"
                    }
                },
                {
                    "sampler" : 20,
                    "target" : {
                        "node" : 6,
                        "path" : "scale"
                    }
                },
                {
                    "sampler" : 21,
                    "target" : {
                        "node" : 7,
                        "path" : "translation"
                    }
                },
                {
                    "sampler" : 22,
                    "target" : {
                        "node" : 7,
                        "path" : "rotation"
                    }
                },
                {
                    "sampler" : 23,
                    "target" : {
                        "node" : 7,
                        "path" : "scale"
                    }
                }
            ],
            "name" : "ArmatureAction",
            "samplers" : [
                {
                    "input" : 7,
                    "interpolation" : "LINEAR",
                    "output" : 8
                },
                {
                    "input" : 7,
                    "interpolation" : "LINEAR",
                    "output" : 9
                },
                {
                    "input" : 7,
                    "interpolation" : "LINEAR",
                    "output" : 10
                },
                {
                    "input" : 7,
                    "interpolation" : "LINEAR",
                    "output" : 11
                },
                {
                    "input" : 7,
                    "interpolation" : "LINEAR",
                    "output" : 12
                },
                {
                    "input" : 7,
                    "interpolation" : "LINEAR",
                    "output" : 13
                },
                {
                    "input" : 7,
                    "interpolation" : "LINEAR",
                    "output" : 14
                },
                {
                    "input" : 7,
                    "interpolation" : "LINEAR",
                    "output" : 15
                },
                {
                    "input" : 7,
                    "interpolation" : "LINEAR",
                    "output" : 16
                },
                {
                    "input" : 7,
                    "interpolation" : "LINEAR",
                    "output" : 17
                },
                {
                    "input" : 7,
                    "interpolation" : "LINEAR",
                    "output" : 18
                },
                {
                    "input" : 7,
                    "interpolation" : "LINEAR",
                    "output" : 19
                },
                {
                    "input" : 7,
                    "interpolation" : "LINEAR",
                    "output" : 20
                },
                {
                    "input" : 7,
                    "interpolation" : "LINEAR",
                    "output" : 21
                },
                {
                    "input" : 7,
                    "interpolation" : "LINEAR",
                    "output" : 22
                },
                {
                    "input" : 7,
                    "interpolation" : "LINEAR",
                    "output" : 23
                },
                {
                    "input" : 7,
                    "interpolation" : "LINEAR",
                    "output" : 24
                },
                {
                    "input" : 7,
                    "interpolation" : "LINEAR",
                    "output" : 25
                },
                {
                    "input" : 7,
                    "interpolation" : "LINEAR",
                    "output" : 26
                },
                {
                    "input" : 7,
                    "interpolation" : "LINEAR",
                    "output" : 27
                },
                {
                    "input" : 7,
                    "interpolation" : "LINEAR",
                    "output" : 28
                },
                {
                    "input" : 7,
                    "interpolation" : "LINEAR",
                    "output" : 29
                },
                {
                    "input" : 7,
                    "interpolation" : "LINEAR",
                    "output" : 30
                },
                {
                    "input" : 7,
                    "interpolation" : "LINEAR",
                    "output" : 31
                }
            ]
        }
    ],
    "materials" : [
        {
            "doubleSided" : true,
            "name" : "Teeth",
            "pbrMetallicRoughness" : {
                "baseColorFactor" : [
                    0.800000011920929,
                    0.800000011920929,
                    0.800000011920929,
                    1
                ],
                "metallicFactor" : 0,
                "roughnessFactor" : 0.5
            }
        }
    ],
    "meshes" : [
        {
            "name" : "Cone",
            "primitives" : [
                {
                    "attributes" : {
                        "POSITION" : 0,
                        "NORMAL" : 1,
                        "TEXCOORD_0" : 2,
                        "JOINTS_0" : 3,
                        "WEIGHTS_0" : 4
                    },
                    "indices" : 5,
                    "material" : 0
                }
            ]
        }
    ],
    "skins" : [
        {
            "inverseBindMatrices" : 6,
            "joints" : [
                5,
                4,
                2,
                3,
                9,
                8,
                6,
                7
            ],
            "name" : "Armature"
        }
    ],
    "accessors" : [
        {
            "bufferView" : 0,
            "componentType" : 5126,
            "count" : 3328,
            "max" : [
                0.6514089703559875,
                0.40472015738487244,
                -0.23212529718875885
            ],
            "min" : [
                -0.6443279385566711,
                -0.6565396189689636,
                -0.7129848003387451
            ],
            "type" : "VEC3"
        },
        {
            "bufferView" : 1,
            "componentType" : 5126,
            "count" : 3328,
            "type" : "VEC3"
        },
        {
            "bufferView" : 2,
            "componentType" : 5126,
            "count" : 3328,
            "type" : "VEC2"
        },
        {
            "bufferView" : 3,
            "componentType" : 5121,
            "count" : 3328,
            "type" : "VEC4"
        },
        {
            "bufferView" : 4,
            "componentType" : 5126,
            "count" : 3328,
            "type" : "VEC4"
        },
        {
            "bufferView" : 5,
            "componentType" : 5123,
            "count" : 4836,
            "type" : "SCALAR"
        },
        {
            "bufferView" : 6,
            "componentType" : 5126,
            "count" : 8,
            "type" : "MAT4"
        },
        {
            "bufferView" : 7,
            "componentType" : 5126,
            "count" : 5,
            "max" : [
                0.20833333333333334
            ],
            "min" : [
                0.041666666666666664
            ],
            "type" : "SCALAR"
        },
        {
            "bufferView" : 8,
            "componentType" : 5126,
            "count" : 5,
            "type" : "VEC3"
        },
        {
            "bufferView" : 9,
            "componentType" : 5126,
            "count" : 5,
            "type" : "VEC4"
        },
        {
            "bufferView" : 10,
            "componentType" : 5126,
            "count" : 5,
            "type" : "VEC3"
        },
        {
            "bufferView" : 11,
            "componentType" : 5126,
            "count" : 5,
            "type" : "VEC3"
        },
        {
            "bufferView" : 12,
            "componentType" : 5126,
            "count" : 5,
            "type" : "VEC4"
        },
        {
            "bufferView" : 13,
            "componentType" : 5126,
            "count" : 5,
            "type" : "VEC3"
        },
        {
            "bufferView" : 14,
            "componentType" : 5126,
            "count" : 5,
            "type" : "VEC3"
        },
        {
            "bufferView" : 15,
            "componentType" : 5126,
            "count" : 5,
            "type" : "VEC4"
        },
        {
            "bufferView" : 16,
            "componentType" : 5126,
            "count" : 5,
            "type" : "VEC3"
        },
        {
            "bufferView" : 17,
            "componentType" : 5126,
            "count" : 5,
            "type" : "VEC3"
        },
        {
            "bufferView" : 18,
            "componentType" : 5126,
            "count" : 5,
            "type" : "VEC4"
        },
        {
            "bufferView" : 19,
            "componentType" : 5126,
            "count" : 5,
            "type" : "VEC3"
        },
        {
            "bufferView" : 20,
            "componentType" : 5126,
            "count" : 5,
            "type" : "VEC3"
        },
        {
            "bufferView" : 21,
            "componentType" : 5126,
            "count" : 5,
            "type" : "VEC4"
        },
        {
            "bufferView" : 22,
            "componentType" : 5126,
            "count" : 5,
            "type" : "VEC3"
        },
        {
            "bufferView" : 23,
            "componentType" : 5126,
            "count" : 5,
            "type" : "VEC3"
        },
        {
            "bufferView" : 24,
            "componentType" : 5126,
            "count" : 5,
            "type" : "VEC4"
        },
        {
            "bufferView" : 25,
            "componentType" : 5126,
            "count" : 5,
            "type" : "VEC3"
        },
        {
            "bufferView" : 26,
            "componentType" : 5126,
            "count" : 5,
            "type" : "VEC3"
        },
        {
            "bufferView" : 27,
            "componentType" : 5126,
            "count" : 5,
            "type" : "VEC4"
        },
        {
            "bufferView" : 28,
            "componentType" : 5126,
            "count" : 5,
            "type" : "VEC3"
        },
        {
            "bufferView" : 29,
            "componentType" : 5126,
            "count" : 5,
            "type" : "VEC3"
        },
        {
            "bufferView" : 30,
            "componentType" : 5126,
            "count" : 5,
            "type" : "VEC4"
        },
        {
            "bufferView" : 31,
            "componentType" : 5126,
            "count" : 5,
            "type" : "VEC3"
        }
    ],
    "bufferViews" : [
        {
            "buffer" : 0,
            "byteLength" : 39936,
            "byteOffset" : 0
        },
        {
            "buffer" : 0,
            "byteLength" : 39936,
            "byteOffset" : 39936
        },
        {
            "buffer" : 0,
            "byteLength" : 26624,
            "byteOffset" : 79872
        },
        {
            "buffer" : 0,
            "byteLength" : 13312,
            "byteOffset" : 106496
        },
        {
            "buffer" : 0,
            "byteLength" : 53248,
            "byteOffset" : 119808
        },
        {
            "buffer" : 0,
            "byteLength" : 9672,
            "byteOffset" : 173056
        },
        {
            "buffer" : 0,
            "byteLength" : 512,
            "byteOffset" : 182728
        },
        {
            "buffer" : 0,
            "byteLength" : 20,
            "byteOffset" : 183240
        },
        {
            "buffer" : 0,
            "byteLength" : 60,
            "byteOffset" : 183260
        },
        {
            "buffer" : 0,
            "byteLength" : 80,
            "byteOffset" : 183320
        },
        {
            "buffer" : 0,
            "byteLength" : 60,
            "byteOffset" : 183400
        },
        {
            "buffer" : 0,
            "byteLength" : 60,
            "byteOffset" : 183460
        },
        {
            "buffer" : 0,
            "byteLength" : 80,
            "byteOffset" : 183520
        },
        {
            "buffer" : 0,
            "byteLength" : 60,
            "byteOffset" : 183600
        },
        {
            "buffer" : 0,
            "byteLength" : 60,
            "byteOffset" : 183660
        },
        {
            "buffer" : 0,
            "byteLength" : 80,
            "byteOffset" : 183720
        },
        {
            "buffer" : 0,
            "byteLength" : 60,
            "byteOffset" : 183800
        },
        {
            "buffer" : 0,
            "byteLength" : 60,
            "byteOffset" : 183860
        },
        {
            "buffer" : 0,
            "byteLength" : 80,
            "byteOffset" : 183920
        },
        {
            "buffer" : 0,
            "byteLength" : 60,
            "byteOffset" : 184000
        },
        {
            "buffer" : 0,
            "byteLength" : 60,
            "byteOffset" : 184060
        },
        {
            "buffer" : 0,
            "byteLength" : 80,
            "byteOffset" : 184120
        },
        {
            "buffer" : 0,
            "byteLength" : 60,
            "byteOffset" : 184200
        },
        {
            "buffer" : 0,
            "byteLength" : 60,
            "byteOffset" : 184260
        },
        {
            "buffer" : 0,
            "byteLength" : 80,
            "byteOffset" : 184320
        },
        {
            "buffer" : 0,
            "byteLength" : 60,
            "byteOffset" : 184400
        },
        {
            "buffer" : 0,
            "byteLength" : 60,
            "byteOffset" : 184460
        },
        {
            "buffer" : 0,
            "byteLength" : 80,
            "byteOffset" : 184520
        },
        {
            "buffer" : 0,
            "byteLength" : 60,
            "byteOffset" : 184600
        },
        {
            "buffer" : 0,
            "byteLength" : 60,
            "byteOffset" : 184660
        },
        {
            "buffer" : 0,
            "byteLength" : 80,
            "byteOffset" : 184720
        },
        {
            "buffer" : 0,
            "byteLength" : 60,
            "byteOffset" : 184800
        }
    ],
    "buffers" : [
        {
            "byteLength" : 184860,
            "uri" : "data:application/octet-stream;base64,"
        }
    ]
}
